<svg width="510" height="139" viewBox="0 0 510 139" fill="none" xmlns="http://www.w3.org/2000/svg">
<path fill-rule="evenodd" clip-rule="evenodd" d="M12.7009 108.568C4.65864 95.8475 0 80.7749 0 64.6124C0 48.8253 4.44455 34.0776 12.1459 21.5465C12.0274 22.8022 11.9668 24.0811 11.9668 25.384C11.9668 32.4049 13.8818 38.6895 17.7115 44.336C21.5411 49.9331 27.1874 54.4994 34.5522 58.0837C44.0775 62.4043 61.851 65.4482 87.9714 67.3142C93.2251 67.5596 97.251 67.854 100.05 68.1488C111.637 69.1305 120.72 72.1256 127.3 77.1337C133.879 82.1418 137.168 88.5247 137.168 96.282C137.168 106.053 132.602 114.056 123.421 120.291C114.288 126.527 102.357 129.62 87.6769 129.62C75.7949 129.62 63.7659 127.312 51.6385 122.746C39.5112 118.131 27.8257 111.503 16.5821 102.812L12.7009 108.568Z" fill="url(#paint0_radial_202_558)"/>
<path d="M75.3625 112.316H33.7473L37.7507 104.73C38.3126 103.747 38.7691 103.15 39.1203 102.939C39.4715 102.729 40.1739 102.623 41.2275 102.623H72.9393C73.9225 102.623 74.7478 102.29 75.415 101.623C76.0822 100.955 76.4158 100.13 76.4158 99.1466C76.4158 98.1634 76.0822 97.3381 75.415 96.6709C74.7478 96.0037 73.9225 95.6698 72.9393 95.6698H72.834H47.6541C45.5469 95.6698 43.5803 95.389 41.7541 94.8271C39.928 94.2653 38.3302 93.4224 36.9606 92.2986C35.591 91.1747 34.5198 89.8227 33.7473 88.2424C32.9745 86.6622 32.5884 84.8534 32.5884 82.8167C32.5884 80.7799 32.9745 78.9711 33.7473 77.3908C34.5198 75.8106 35.591 74.4584 36.9606 73.3346C38.3302 72.2109 39.928 71.368 41.7541 70.8061C43.5803 70.2443 45.5469 69.9632 47.6541 69.9632H82.3158L78.4177 77.549C77.8558 78.462 77.3993 79.0239 77.0481 79.2346C76.6969 79.4452 75.9945 79.5506 74.9409 79.5506H47.9701C47.057 79.5506 46.2845 79.8668 45.6522 80.4988C45.0202 81.131 44.7042 81.9036 44.7042 82.8167C44.7042 83.7297 45.0202 84.5022 45.6522 85.1345C46.2845 85.7665 47.057 86.0827 47.9701 86.0827H75.4678C77.2235 86.0827 78.9094 86.3987 80.5248 87.0307C82.1403 87.663 83.5275 88.5584 84.6864 89.7173C85.8453 90.8763 86.7759 92.2459 87.4783 93.8261C88.1805 95.4066 88.5317 97.1799 88.5317 99.1466C88.5317 101.113 88.1805 102.904 87.4783 104.52C86.7759 106.135 85.8453 107.522 84.6864 108.681C83.5275 109.84 82.1403 110.736 80.5248 111.368C78.9094 112 77.2235 112.316 75.4678 112.316H75.3625ZM118.453 68.1723C127.232 68.1723 133.711 70.2619 137.89 74.441C142.07 78.6199 144.159 84.1862 144.159 91.1397C144.159 94.5813 143.65 97.7244 142.631 100.569C141.613 103.413 140.05 105.837 137.943 107.838C135.836 109.84 133.167 111.385 129.936 112.474C126.705 113.563 122.877 114.107 118.453 114.107C114.028 114.107 110.2 113.563 106.969 112.474C103.738 111.385 101.069 109.84 98.9619 107.838C96.8548 105.837 95.2921 103.413 94.2735 100.569C93.2551 97.7244 92.746 94.5813 92.746 91.1397C92.746 84.1862 94.8356 78.6199 99.0145 74.441C103.194 70.2619 109.673 68.1723 118.453 68.1723ZM118.453 104.73C120.279 104.73 122.017 104.555 123.667 104.204C125.318 103.852 126.775 103.185 128.04 102.202C129.304 101.219 130.323 99.849 131.095 98.093C131.868 96.3373 132.254 94.0194 132.254 91.1397C132.254 88.3302 131.868 86.0299 131.095 84.239C130.323 82.4478 129.304 81.0431 128.04 80.0247C126.775 79.0063 125.318 78.3215 123.667 77.9703C122.017 77.6191 120.279 77.4436 118.453 77.4436C116.626 77.4436 114.888 77.6191 113.237 77.9703C111.587 78.3215 110.13 79.0063 108.865 80.0247C107.601 81.0431 106.583 82.4478 105.81 84.239C105.037 86.0299 104.651 88.3302 104.651 91.1397C104.651 94.0194 105.037 96.3373 105.81 98.093C106.583 99.849 107.601 101.219 108.865 102.202C110.13 103.185 111.587 103.852 113.237 104.204C114.888 104.555 116.626 104.73 118.453 104.73ZM169.655 88.6112C170.217 87.6982 170.673 87.1361 171.024 86.9254C171.376 86.7147 172.078 86.6094 173.132 86.6094H192.517L188.83 93.6682C188.268 94.5813 187.811 95.1431 187.46 95.3538C187.109 95.5645 186.406 95.6698 185.353 95.6698H165.967L169.655 88.6112ZM201.367 69.9632L197.469 77.4436C196.977 78.3567 196.538 78.9185 196.152 79.1292C195.765 79.3399 195.045 79.4452 193.992 79.4452H166.073C165.3 79.4452 164.668 79.7087 164.177 80.2354C163.685 80.7623 163.439 81.4119 163.439 82.1844V112.316H150.48V69.9632H201.367ZM236.45 112.316H223.491V79.4452H201.367L205.265 71.965C205.757 71.052 206.195 70.4901 206.582 70.2795C206.968 70.0688 207.653 69.9632 208.636 69.9632H258.68L254.782 77.4436C254.22 78.3567 253.763 78.9185 253.412 79.1292C253.061 79.3399 252.359 79.4452 251.305 79.4452H239.189C238.417 79.4452 237.767 79.7087 237.24 80.2354C236.713 80.7623 236.45 81.4119 236.45 82.1844V112.316ZM319.153 86.6094V109.577C319.153 110.349 318.908 110.999 318.416 111.526C317.924 112.053 317.292 112.316 316.52 112.316H284.492C280.418 112.316 276.889 111.807 273.904 110.788C270.919 109.77 268.46 108.348 266.529 106.521C264.597 104.695 263.157 102.465 262.209 99.8314C261.261 97.1975 260.787 94.3002 260.787 91.1397C260.787 87.979 261.261 85.0817 262.209 82.4478C263.157 79.814 264.597 77.5839 266.529 75.7578C268.46 73.9317 270.919 72.5093 273.904 71.4909C276.889 70.4725 280.418 69.9632 284.492 69.9632H317.152L313.254 77.4436C312.692 78.3567 312.218 78.9185 311.831 79.1292C311.445 79.3399 310.76 79.4452 309.777 79.4452H285.756C284.211 79.4452 282.736 79.6033 281.331 79.9193C279.926 80.2353 278.68 80.8148 277.591 81.6577C276.502 82.5006 275.642 83.6945 275.01 85.2398C274.378 86.7849 274.062 88.7515 274.062 91.1397C274.062 93.5978 274.378 95.5821 275.01 97.0922C275.642 98.6023 276.502 99.7788 277.591 100.621C278.68 101.464 279.926 102.026 281.331 102.307C282.736 102.588 284.211 102.729 285.756 102.729L308.091 102.623V95.6698H287.969L291.551 88.6112C292.112 87.6982 292.587 87.1361 292.973 86.9254C293.359 86.7147 294.044 86.6094 295.027 86.6094H319.153ZM327.582 112.316V69.9632H366.774C368.881 69.9632 370.865 70.3672 372.727 71.1749C374.588 71.9826 376.203 73.0712 377.573 74.441C378.943 75.8106 380.031 77.4084 380.839 79.2346C381.647 81.0607 382.05 83.0273 382.05 85.1345C382.05 88.3654 381.155 91.2451 379.364 93.7736C377.573 96.3021 375.308 98.1282 372.568 99.2519L387.95 112.316H371.726L358.03 100.411H344.439L348.337 92.8253C348.899 91.9123 349.355 91.3328 349.706 91.0869C350.058 90.8411 350.76 90.7181 351.814 90.7181H363.613C365.229 90.7181 366.563 90.1739 367.617 89.0854C368.67 87.9966 369.197 86.6795 369.197 85.1345C369.197 83.5892 368.67 82.2724 367.617 81.1836C366.563 80.0951 365.229 79.5506 363.613 79.5506H343.28C342.507 79.5506 341.858 79.814 341.331 80.3407C340.804 80.8676 340.541 81.5172 340.541 82.2897V112.316H327.582ZM436.203 107.47C435.641 106.486 435.167 105.889 434.781 105.679C434.394 105.468 433.71 105.362 432.726 105.362H413.025L416.923 97.777C417.485 96.8639 417.941 96.2845 418.293 96.0386C418.644 95.7928 419.346 95.6698 420.4 95.6698H429.882L421.453 79.7612L404.597 112.316H390.058C393.991 105.011 397.538 98.4442 400.699 92.6146C402.033 90.1563 403.35 87.7331 404.649 85.3452C405.949 82.9572 407.108 80.7972 408.126 78.8658C409.144 76.9343 409.987 75.3541 410.654 74.1248C411.322 72.8957 411.726 72.2109 411.866 72.0704C412.428 71.0872 412.884 70.4901 413.236 70.2795C413.587 70.0688 414.289 69.9632 415.343 69.9632H429.882L453.165 112.316H438.732L436.203 107.47ZM477.607 88.6112C478.169 87.6982 478.626 87.1361 478.977 86.9254C479.328 86.7147 480.031 86.6094 481.084 86.6094H500.469L496.782 93.6682C496.22 94.5813 495.764 95.1431 495.412 95.3538C495.061 95.5645 494.359 95.6698 493.305 95.6698H473.92L477.607 88.6112ZM509.319 69.9632L505.421 77.4436C504.929 78.3567 504.491 78.9185 504.104 79.1292C503.718 79.3399 502.998 79.4452 501.944 79.4452H474.025C473.253 79.4452 472.621 79.7087 472.129 80.2354C471.637 80.7623 471.391 81.4119 471.391 82.1844V112.316H458.433V69.9632H509.319Z" fill="black"/>
<path fill-rule="evenodd" clip-rule="evenodd" d="M146.055 12.3698C157.732 26.5847 164.742 44.7801 164.742 64.6124C164.742 76.1503 162.366 87.1319 158.083 97.1005C158.083 97.024 158.084 96.948 158.084 96.8715C158.084 84.4003 153.371 73.9424 143.993 65.3991C134.566 56.8561 121.801 51.7008 105.696 49.884C100.246 49.1968 92.4889 48.6076 82.5218 48.0183C60.8201 46.6927 46.729 43.5503 40.1986 38.6896C37.6456 36.6765 35.6817 34.4671 34.4543 32.1593C33.2267 29.8518 32.5884 27.2988 32.5884 24.5494C32.5884 17.5279 36.4672 11.6852 44.225 7.02095C52.0314 2.35669 61.9003 0 73.8805 0C85.2712 0 96.3674 2.01283 107.169 5.9901C117.971 10.016 128.233 15.957 138.052 23.8617L146.055 12.3698Z" fill="url(#paint1_radial_202_558)"/>
<path d="M458.86 134.716V132.385H468.863C469.487 132.385 469.968 132.227 470.304 131.908C470.64 131.59 470.809 131.168 470.809 130.642C470.809 130.067 470.64 129.635 470.304 129.348C469.968 129.06 469.487 128.917 468.863 128.917H462.733C462.109 128.917 461.543 128.822 461.035 128.632C460.528 128.443 460.099 128.179 459.751 127.843C459.402 127.507 459.133 127.106 458.943 126.641C458.753 126.176 458.659 125.668 458.659 125.117C458.659 124.579 458.747 124.08 458.925 123.622C459.102 123.163 459.365 122.768 459.714 122.438C460.063 122.107 460.494 121.847 461.008 121.658C461.522 121.468 462.109 121.373 462.77 121.373H472.35V123.704H462.77C462.231 123.704 461.815 123.848 461.522 124.135C461.228 124.423 461.081 124.824 461.081 125.338C461.081 125.851 461.231 126.249 461.531 126.531C461.831 126.812 462.237 126.953 462.751 126.953H468.863C470.221 126.953 471.252 127.271 471.956 127.907C472.659 128.543 473.011 129.51 473.011 130.807C473.011 131.37 472.925 131.89 472.754 132.367C472.583 132.844 472.326 133.257 471.983 133.606C471.641 133.955 471.209 134.227 470.69 134.423C470.169 134.618 469.561 134.716 468.863 134.716H458.86ZM445.04 132.385C445.652 132.385 446.215 132.275 446.729 132.055C447.243 131.835 447.686 131.532 448.059 131.147C448.432 130.761 448.723 130.299 448.931 129.761C449.139 129.222 449.243 128.641 449.243 128.017C449.243 127.393 449.139 126.815 448.931 126.283C448.723 125.751 448.432 125.295 448.059 124.915C447.686 124.536 447.243 124.239 446.729 124.025C446.215 123.811 445.652 123.704 445.04 123.704H441.791C441.192 123.704 440.638 123.811 440.13 124.025C439.623 124.239 439.185 124.536 438.818 124.915C438.451 125.295 438.164 125.748 437.955 126.274C437.747 126.8 437.643 127.381 437.643 128.017C437.643 128.641 437.747 129.222 437.955 129.761C438.164 130.299 438.451 130.761 438.818 131.147C439.185 131.532 439.623 131.835 440.13 132.055C440.638 132.275 441.192 132.385 441.791 132.385H445.04ZM441.791 134.716C440.861 134.716 440.002 134.542 439.213 134.193C438.423 133.845 437.738 133.367 437.157 132.762C436.576 132.156 436.123 131.437 435.799 130.605C435.475 129.773 435.312 128.874 435.312 127.907C435.312 126.928 435.475 126.035 435.799 125.228C436.123 124.42 436.576 123.732 437.157 123.163C437.738 122.594 438.423 122.153 439.213 121.841C440.002 121.529 440.861 121.373 441.791 121.373H445.04C446.007 121.373 446.891 121.532 447.692 121.851C448.494 122.168 449.182 122.615 449.757 123.19C450.332 123.765 450.779 124.454 451.097 125.255C451.415 126.057 451.574 126.941 451.574 127.907C451.574 128.874 451.412 129.773 451.088 130.605C450.763 131.437 450.311 132.156 449.729 132.762C449.148 133.367 448.46 133.845 447.665 134.193C446.869 134.542 445.994 134.716 445.04 134.716H441.791ZM421.896 132.385C422.495 132.385 423.049 132.275 423.557 132.055C424.065 131.835 424.505 131.532 424.879 131.147C425.252 130.761 425.542 130.299 425.75 129.761C425.958 129.222 426.062 128.641 426.062 128.017C426.062 127.393 425.958 126.815 425.75 126.283C425.542 125.751 425.252 125.295 424.879 124.915C424.505 124.536 424.065 124.239 423.557 124.025C423.049 123.811 422.495 123.704 421.896 123.704H416.482V132.385H421.896ZM414.169 134.716V121.373H421.896C422.838 121.373 423.707 121.532 424.502 121.851C425.297 122.168 425.983 122.615 426.558 123.19C427.133 123.765 427.583 124.454 427.907 125.255C428.231 126.057 428.393 126.941 428.393 127.907C428.393 128.874 428.231 129.773 427.907 130.605C427.583 131.437 427.133 132.156 426.558 132.762C425.983 133.367 425.297 133.845 424.502 134.193C423.707 134.542 422.838 134.716 421.896 134.716H414.169ZM404.533 134.716L402.533 131.358H396.219L397.32 129.467H401.413L398.44 124.475L392.383 134.716H389.722L397.394 121.942C397.528 121.71 397.687 121.526 397.871 121.392C398.054 121.257 398.275 121.19 398.532 121.19C398.789 121.19 399.006 121.257 399.183 121.392C399.361 121.526 399.517 121.71 399.651 121.942L407.341 134.716H404.533ZM376.103 134.716C375.173 134.716 374.314 134.542 373.525 134.193C372.735 133.845 372.05 133.367 371.469 132.762C370.888 132.156 370.435 131.437 370.111 130.605C369.787 129.773 369.624 128.874 369.624 127.907C369.624 126.928 369.787 126.035 370.111 125.228C370.435 124.42 370.888 123.732 371.469 123.163C372.05 122.594 372.735 122.153 373.525 121.841C374.314 121.529 375.173 121.373 376.103 121.373H383.335V123.704H376.103C375.504 123.704 374.95 123.811 374.442 124.025C373.935 124.239 373.497 124.536 373.13 124.915C372.763 125.295 372.476 125.748 372.267 126.274C372.059 126.8 371.956 127.381 371.956 128.017C371.956 128.641 372.059 129.222 372.267 129.761C372.476 130.299 372.763 130.761 373.13 131.147C373.497 131.532 373.935 131.835 374.442 132.055C374.95 132.275 375.504 132.385 376.103 132.385H383.335V134.716H376.103ZM375.488 136.989C375.576 136.985 375.666 136.974 375.759 136.956C376.21 136.866 376.522 136.666 376.695 136.357C376.869 136.048 376.906 135.648 376.808 135.158L376.718 134.706C377.105 134.116 377.529 133.561 377.99 133.046L378.35 134.851C378.562 135.917 378.474 136.776 378.085 137.427C377.696 138.08 376.992 138.507 375.974 138.71C375.577 138.789 375.196 138.809 374.832 138.768C375.019 138.156 375.238 137.562 375.488 136.989ZM350.757 124.952V134.716H348.536V122.603C348.536 122.175 348.643 121.835 348.857 121.584C349.071 121.333 349.362 121.208 349.729 121.208C349.9 121.208 350.066 121.245 350.225 121.318C350.384 121.392 350.549 121.514 350.72 121.685L360.136 131.027V121.263H362.356V133.487C362.356 133.927 362.249 134.27 362.035 134.515C361.821 134.759 361.543 134.882 361.2 134.882C360.821 134.882 360.466 134.716 360.136 134.386L350.757 124.952ZM338.955 134.716L336.955 131.358H330.641L331.742 129.467H335.835L332.862 124.475L326.805 134.716H324.144L331.816 121.942C331.95 121.71 332.109 121.526 332.293 121.392C332.477 121.257 332.697 121.19 332.954 121.19C333.211 121.19 333.428 121.257 333.605 121.392C333.783 121.526 333.939 121.71 334.073 121.942L341.764 134.716H338.955ZM304.744 121.373H307.589L313.646 131.651L319.684 121.373H322.364L314.673 134.147C314.539 134.38 314.38 134.563 314.196 134.698C314.013 134.833 313.798 134.9 313.554 134.9C313.297 134.9 313.077 134.833 312.893 134.698C312.709 134.563 312.55 134.38 312.416 134.147L304.744 121.373ZM300.302 134.716L298.302 131.358H291.988L293.089 129.467H297.182L294.209 124.475L288.152 134.716H285.491L293.163 121.942C293.297 121.71 293.456 121.526 293.64 121.392C293.823 121.257 294.044 121.19 294.301 121.19C294.558 121.19 294.775 121.257 294.952 121.392C295.13 121.526 295.286 121.71 295.42 121.942L303.11 134.716H300.302ZM259.447 134.716V132.385H269.45C270.074 132.385 270.554 132.227 270.89 131.908C271.227 131.59 271.395 131.168 271.395 130.642C271.395 130.067 271.227 129.635 270.89 129.348C270.554 129.06 270.074 128.917 269.45 128.917H263.32C262.696 128.917 262.13 128.822 261.622 128.632C261.114 128.443 260.686 128.179 260.337 127.843C259.989 127.507 259.719 127.106 259.53 126.641C259.34 126.176 259.245 125.668 259.245 125.117C259.245 124.579 259.334 124.08 259.511 123.622C259.689 123.163 259.952 122.768 260.3 122.438C260.649 122.107 261.08 121.847 261.594 121.658C262.108 121.468 262.696 121.373 263.356 121.373H272.937V123.704H263.356C262.818 123.704 262.402 123.848 262.108 124.135C261.815 124.423 261.668 124.824 261.668 125.338C261.668 125.851 261.818 126.249 262.117 126.531C262.417 126.812 262.824 126.953 263.338 126.953H269.45C270.808 126.953 271.839 127.271 272.542 127.907C273.246 128.543 273.598 129.51 273.598 130.807C273.598 131.37 273.512 131.89 273.341 132.367C273.169 132.844 272.913 133.257 272.57 133.606C272.227 133.955 271.796 134.227 271.276 134.423C270.756 134.618 270.147 134.716 269.45 134.716H259.447ZM245.627 132.385C246.238 132.385 246.801 132.275 247.315 132.055C247.829 131.835 248.272 131.532 248.646 131.147C249.019 130.761 249.309 130.299 249.518 129.761C249.726 129.222 249.83 128.641 249.83 128.017C249.83 127.393 249.726 126.815 249.518 126.283C249.309 125.751 249.019 125.295 248.646 124.915C248.272 124.536 247.829 124.239 247.315 124.025C246.801 123.811 246.238 123.704 245.627 123.704H242.378C241.778 123.704 241.225 123.811 240.717 124.025C240.209 124.239 239.772 124.536 239.405 124.915C239.038 125.295 238.75 125.748 238.542 126.274C238.334 126.8 238.23 127.381 238.23 128.017C238.23 128.641 238.334 129.222 238.542 129.761C238.75 130.299 239.038 130.761 239.405 131.147C239.772 131.532 240.209 131.835 240.717 132.055C241.225 132.275 241.778 132.385 242.378 132.385H245.627ZM242.378 134.716C241.448 134.716 240.589 134.542 239.799 134.193C239.01 133.845 238.325 133.367 237.744 132.762C237.162 132.156 236.71 131.437 236.385 130.605C236.061 129.773 235.899 128.874 235.899 127.907C235.899 126.928 236.061 126.035 236.385 125.228C236.71 124.42 237.162 123.732 237.744 123.163C238.325 122.594 239.01 122.153 239.799 121.841C240.589 121.529 241.448 121.373 242.378 121.373H245.627C246.593 121.373 247.477 121.532 248.279 121.851C249.08 122.168 249.768 122.615 250.344 123.19C250.919 123.765 251.365 124.454 251.683 125.255C252.001 126.057 252.161 126.941 252.161 127.907C252.161 128.874 251.998 129.773 251.674 130.605C251.35 131.437 250.897 132.156 250.316 132.762C249.735 133.367 249.047 133.845 248.251 134.193C247.456 134.542 246.581 134.716 245.627 134.716H242.378ZM214.737 134.716V132.385H224.74C225.364 132.385 225.844 132.227 226.181 131.908C226.517 131.59 226.686 131.168 226.686 130.642C226.686 130.067 226.517 129.635 226.181 129.348C225.844 129.06 225.364 128.917 224.74 128.917H218.61C217.986 128.917 217.42 128.822 216.912 128.632C216.404 128.443 215.976 128.179 215.628 127.843C215.279 127.507 215.009 127.106 214.82 126.641C214.63 126.176 214.535 125.668 214.535 125.117C214.535 124.579 214.624 124.08 214.802 123.622C214.979 123.163 215.242 122.768 215.591 122.438C215.939 122.107 216.371 121.847 216.885 121.658C217.399 121.468 217.986 121.373 218.647 121.373H228.227V123.704H218.647C218.108 123.704 217.692 123.848 217.399 124.135C217.105 124.423 216.958 124.824 216.958 125.338C216.958 125.851 217.108 126.249 217.408 126.531C217.708 126.812 218.114 126.953 218.628 126.953H224.74C226.098 126.953 227.129 127.271 227.833 127.907C228.536 128.543 228.888 129.51 228.888 130.807C228.888 131.37 228.802 131.89 228.631 132.367C228.46 132.844 228.203 133.257 227.86 133.606C227.518 133.955 227.086 134.227 226.566 134.423C226.046 134.618 225.438 134.716 224.74 134.716H214.737ZM204.826 134.716L201.449 131.009H196.457V128.953H202.018C202.862 128.953 203.499 128.724 203.927 128.265C204.355 127.806 204.569 127.142 204.569 126.274C204.569 125.405 204.346 124.76 203.9 124.337C203.453 123.915 202.826 123.704 202.018 123.704H194.75V134.716H192.437V121.373H202.018C202.777 121.373 203.456 121.486 204.055 121.713C204.655 121.939 205.163 122.263 205.579 122.686C205.995 123.108 206.313 123.618 206.533 124.218C206.753 124.818 206.864 125.491 206.864 126.237C206.864 127.35 206.622 128.283 206.139 129.036C205.655 129.788 204.979 130.33 204.11 130.66L208.13 134.716H204.826ZM182.655 121.373H184.931V128.825C184.931 129.853 184.796 130.749 184.527 131.514C184.258 132.278 183.836 132.912 183.261 133.413C182.686 133.915 181.942 134.288 181.031 134.533C180.119 134.778 179.015 134.9 177.718 134.9C176.433 134.9 175.335 134.778 174.423 134.533C173.512 134.288 172.768 133.915 172.193 133.413C171.618 132.912 171.196 132.278 170.927 131.514C170.658 130.749 170.523 129.853 170.523 128.825V121.373H172.928V128.825C172.928 129.498 173.01 130.073 173.175 130.55C173.341 131.027 173.61 131.419 173.983 131.725C174.356 132.031 174.855 132.254 175.479 132.395C176.103 132.535 176.873 132.606 177.791 132.606C178.709 132.606 179.48 132.535 180.104 132.395C180.728 132.254 181.226 132.031 181.6 131.725C181.973 131.419 182.242 131.027 182.407 130.55C182.573 130.073 182.655 129.498 182.655 128.825V121.373ZM156.207 134.716C155.277 134.716 154.418 134.542 153.629 134.193C152.839 133.845 152.154 133.367 151.573 132.762C150.992 132.156 150.539 131.437 150.215 130.605C149.891 129.773 149.728 128.874 149.728 127.907C149.728 126.928 149.891 126.035 150.215 125.228C150.539 124.42 150.992 123.732 151.573 123.163C152.154 122.594 152.839 122.153 153.629 121.841C154.418 121.529 155.277 121.373 156.207 121.373H163.439V123.704H156.207C155.608 123.704 155.054 123.811 154.546 124.025C154.039 124.239 153.601 124.536 153.234 124.915C152.867 125.295 152.579 125.748 152.371 126.274C152.163 126.8 152.059 127.381 152.059 128.017C152.059 128.641 152.163 129.222 152.371 129.761C152.579 130.299 152.867 130.761 153.234 131.147C153.601 131.532 154.039 131.835 154.546 132.055C155.054 132.275 155.608 132.385 156.207 132.385H163.439V134.716H156.207Z" fill="black"/>
<defs>
<radialGradient id="paint0_radial_202_558" cx="0" cy="0" r="1" gradientUnits="userSpaceOnUse" gradientTransform="translate(97.3894 58.2914) scale(48.0087 37.8256)">
<stop stop-color="#F1C6C6"/>
<stop offset="1" stop-color="#B50909"/>
</radialGradient>
<radialGradient id="paint1_radial_202_558" cx="0" cy="0" r="1" gradientUnits="userSpaceOnUse" gradientTransform="translate(126.417 33.0141) scale(46.2537 33.9851)">
<stop stop-color="#F1C6C6"/>
<stop offset="1" stop-color="#B50909"/>
</radialGradient>
</defs>
</svg>
